<?xml version="1.0" encoding="utf-8"?>
<!-- Generator: Adobe Illustrator 16.0.0, SVG Export Plug-In . SVG Version: 6.00 Build 0)  -->
<!DOCTYPE svg PUBLIC "-//W3C//DTD SVG 1.1//EN" "http://www.w3.org/Graphics/SVG/1.1/DTD/svg11.dtd">
<svg version="1.1" id="Layer_1" xmlns="http://www.w3.org/2000/svg" xmlns:xlink="http://www.w3.org/1999/xlink" x="0px" y="0px"
	 width="200px" height="200px" viewBox="0 0 200 200" enable-background="new 0 0 200 200" xml:space="preserve">
<g>
	<rect x="2.652" y="27.072" fill="#F0F0F0" width="200" height="97.375"/>
	<g>
		<polyline fill="none" stroke="#999999" stroke-width="8" stroke-miterlimit="10" points="202.652,114.447 202.652,124.447 
			192.652,124.447 		"/>
		
			<line fill="none" stroke="#999999" stroke-width="8" stroke-miterlimit="10" stroke-dasharray="20,20" x1="172.652" y1="124.447" x2="22.652" y2="124.447"/>
		<polyline fill="none" stroke="#999999" stroke-width="8" stroke-miterlimit="10" points="12.652,124.447 2.652,124.447 
			2.652,114.447 		"/>
		
			<line fill="none" stroke="#999999" stroke-width="8" stroke-miterlimit="10" stroke-dasharray="25.7917,25.7917" x1="2.652" y1="88.656" x2="2.652" y2="49.968"/>
		<polyline fill="none" stroke="#999999" stroke-width="8" stroke-miterlimit="10" points="2.652,37.072 2.652,27.072 
			12.652,27.072 		"/>
		
			<line fill="none" stroke="#999999" stroke-width="8" stroke-miterlimit="10" stroke-dasharray="20,20" x1="32.652" y1="27.072" x2="182.652" y2="27.072"/>
		<polyline fill="none" stroke="#999999" stroke-width="8" stroke-miterlimit="10" points="192.652,27.072 202.652,27.072 
			202.652,37.072 		"/>
		
			<line fill="none" stroke="#999999" stroke-width="8" stroke-miterlimit="10" stroke-dasharray="25.7917,25.7917" x1="202.652" y1="62.864" x2="202.652" y2="101.552"/>
	</g>
</g>
<text transform="matrix(1 0 0 1 26.7627 53.1719)"><tspan x="0" y="0" fill="#999999" font-family="'Arial-BoldMT'" font-size="23.5469">Drop file here </tspan><tspan x="64.116" y="28.257" fill="#999999" font-family="'Arial-BoldMT'" font-size="23.5469">or </tspan><tspan x="-11.124" y="56.513" fill="#999999" font-family="'Arial-BoldMT'" font-size="23.5469">Click to browse</tspan></text>
</svg>
